HIERARCHY
ROOT Hips
{
  OFFSET 57.8838 95.319 338.509
  CHANNELS 6 Xposition Yposition Zposition Zrotation Xrotation Yrotation
  JOINT LeftUpLeg
  {
    OFFSET 8.64259 1.95398 -2.38835
    CHANNELS 3 Zrotation Xrotation Yrotation
    JOINT LeftLeg
    {
      OFFSET 43.7702 0 0
      CHANNELS 3 Zrotation Xrotation Yrotation
      JOINT LeftFoot
      {
        OFFSET 40.6238 0 0
        CHANNELS 3 Zrotation Xrotation Yrotation
        JOINT LeftToeBase
        {
          OFFSET 12.7242 0 0
          CHANNELS 3 Zrotation Xrotation Yrotation
          End Site
          {
            OFFSET 0 0 0
          }
        }
      }
    }
  }
  JOINT RightUpLeg
  {
    OFFSET -8.2249 1.95398 -2.59336
    CHANNELS 3 Zrotation Xrotation Yrotation
    JOINT RightLeg
    {
      OFFSET 43.5653 0 0
      CHANNELS 3 Zrotation Xrotation Yrotation
      JOINT RightFoot
      {
        OFFSET 40.6238 0 0
        CHANNELS 3 Zrotation Xrotation Yrotation
        JOINT RightToeBase
        {
          OFFSET 12.7242 0 0
          CHANNELS 3 Zrotation Xrotation Yrotation
          End Site
          {
            OFFSET 0 0 0
          }
        }
      }
    }
  }
  JOINT Spine
  {
    OFFSET 0.165834 0.87714 6.61349
    CHANNELS 3 Zrotation Xrotation Yrotation
    JOINT Spine1
    {
      OFFSET 7.38963 1.71661e-005 0
      CHANNELS 3 Zrotation Xrotation Yrotation
      JOINT Spine2
      {
        OFFSET 11.9445 1.14441e-005 0
        CHANNELS 3 Zrotation Xrotation Yrotation
        JOINT Spine3
        {
          OFFSET 14.7254 4.19617e-005 0
          CHANNELS 3 Zrotation Xrotation Yrotation
          JOINT Spine4
          {
            OFFSET 10.9679 0 0
            CHANNELS 3 Zrotation Xrotation Yrotation
            JOINT RightShoulder
            {
              OFFSET 2.46616 -1.6653 3.69651
              CHANNELS 3 Zrotation Xrotation Yrotation
              JOINT RightArm
              {
                OFFSET 13.0012 0 0
                CHANNELS 3 Zrotation Xrotation Yrotation
                JOINT RightForeArm
                {
                  OFFSET 28.7848 1.62311e-005 0
                  CHANNELS 3 Zrotation Xrotation Yrotation
                  JOINT RightHand
                  {
                    OFFSET 26.5688 1.62095e-005 0
                    CHANNELS 3 Zrotation Xrotation Yrotation
                    End Site
                    {
                      OFFSET 0 0 0
                    }
                  }
                }
              }
            }
            JOINT LeftShoulder
            {
              OFFSET 2.38034 -1.29275 -3.7523
              CHANNELS 3 Zrotation Xrotation Yrotation
              JOINT LeftArm
              {
                OFFSET 16.3182 6.07031e-005 0
                CHANNELS 3 Zrotation Xrotation Yrotation
                JOINT LeftForeArm
                {
                  OFFSET 27.0901 0 0
                  CHANNELS 3 Zrotation Xrotation Yrotation
                  JOINT LeftHand
                  {
                    OFFSET 24.5451 1.51738e-005 0
                    CHANNELS 3 Zrotation Xrotation Yrotation
                    End Site
                    {
                      OFFSET 0 0 0
                    }
                  }
                }
              }
            }
            JOINT Neck
            {
              OFFSET 5.0226 -0.0266342 0
              CHANNELS 3 Zrotation Xrotation Yrotation
              JOINT Head
              {
                OFFSET 6.69364 2.86102e-005 0
                CHANNELS 3 Zrotation Xrotation Yrotation
                End Site
                {
                  OFFSET 0 0 0
                }
              }
            }
          }
        }
      }
    }
  }
}
MOTION
Frames:	15
Frame Time:	0.0416667
-0.429652 97.1086 -5.52624 147.121 -87.315 148.106 -176.092 2.44832 89.8005 -15.2091 -0.767834 0.721783 66.931 3.78803 -0.597338 29.4768 0.173548 2.00704 173.735 1.89266 91.6477 -14.4039 -7.24621 -0.254359 65.6743 -5.94408 2.45197 30.1297 -1.79896 0.426557 -0.488857 7.24964 -90.1612 12.3741 -1.04794 -0.202716 0.703518 -1.05585 -0.156405 -21.8344 -0.938572 -0.508329 -1.8217 -0.938569 -0.508326 96.7853 -50.8274 -90.2679 30.1041 -6.15652 -10.4078 2.89158 -6.50865 -13.8358 -13.0242 -0.531794 -0.451124 -78.9247 -54.2515 95.5344 -38.9916 -24.018 -22.3412 3.35129 61.308 0.0172761 3.87932 -0.366076 -13.2237 -1.7747 -28.3999 14.8382 -15.0696 -26.3934 -35.1222 
-0.405163 97.1178 -5.4882 146.346 -87.4697 147.332 -176.127 2.42402 89.7761 -14.9011 -0.68953 0.702451 66.7333 3.79815 -0.380934 29.6568 0.255696 1.90849 173.758 2.07599 91.6446 -14.474 -7.08526 -0.274523 65.766 -5.77161 2.69105 30.0417 -1.68268 0.414929 -0.464341 7.20119 -90.1605 12.471 -0.998877 -0.205595 0.80043 -1.00696 -0.161441 -21.7372 -0.890908 -0.496317 -1.72453 -0.890914 -0.49633 96.6596 -51.1932 -90.4219 29.9022 -6.04527 -10.0986 2.90522 -6.66004 -13.7712 -13.3645 -0.523761 -0.649542 -78.9085 -54.1309 95.5555 -39.0671 -24.2297 -22.1479 3.63291 61.5464 0.0174086 3.28374 -0.325705 -13.4354 -0.201252 -25.1103 14.1701 -13.8001 -23.8175 -31.5073 
-0.422954 97.1226 -5.45968 145.426 -87.4347 146.407 -176.208 2.41381 89.7306 -14.8999 -0.807099 0.792036 66.6896 3.75199 -0.473643 29.8473 0.328268 2.07294 173.725 2.07213 91.6386 -14.5502 -7.08972 -0.255943 65.8107 -5.66371 2.83554 30.017 -1.6487 0.271009 -0.428484 7.18931 -90.1736 12.4946 -0.933889 -0.239103 0.823955 -0.943503 -0.197775 -21.7132 -0.818851 -0.508746 -1.70057 -0.818848 -0.508738 96.6342 -51.3863 -90.4402 29.708 -5.87942 -10.052 2.99547 -6.28624 -13.7916 -13.3904 -0.514963 -0.735883 -79.0065 -54.2994 95.4175 -39.0462 -24.2832 -22.2075 3.65719 60.9721 0.0170933 3.15795 -0.321256 -13.6399 2.4341 -20.5326 12.6275 -12.5671 -19.9988 -26.2781 
-0.456911 97.1274 -5.44577 145.637 -87.2366 146.502 -176.193 2.23485 89.6741 -14.9074 -0.699742 0.769716 66.6744 3.80179 -0.420048 29.8036 0.326689 1.74053 173.663 1.87238 91.5478 -14.5212 -7.22544 -0.267127 65.7386 -5.76949 2.49355 30.2215 -1.91972 0.294266 -0.401822 7.20164 -90.163 12.47 -0.87586 -0.224766 0.799305 -0.884901 -0.186006 -21.7376 -0.767813 -0.477628 -1.72496 -0.76781 -0.477623 96.5103 -51.6043 -90.6058 29.4838 -6.06389 -10.0696 3.01755 -6.10326 -13.9433 -13.6393 -0.549491 -0.517994 -79.0601 -54.0711 95.3345 -39.6344 -24.6968 -22.4118 4.11571 61.6523 0.0174682 3.14937 -0.303786 -13.2576 4.51135 -15.9633 10.1811 -11.0563 -15.9183 -21.1951 
-0.48186 97.1286 -5.47222 143.012 -86.9737 143.792 -176.256 2.11608 89.604 -14.9213 -0.591123 0.815613 66.6906 3.75055 -0.629026 29.7647 0.299973 1.93833 173.563 1.78473 91.4571 -14.6297 -7.02451 -0.244075 65.7853 -5.81137 2.5042 30.1585 -1.83725 0.470343 -0.380896 7.19444 -90.1627 12.4844 -0.834129 -0.228776 0.813694 -0.843386 -0.19184 -21.723 -0.726807 -0.468896 -1.71038 -0.726815 -0.468905 96.4283 -51.6835 -90.7216 29.3593 -6.20512 -10.0471 2.93507 -6.6064 -13.7757 -13.5367 -0.511245 -0.821322 -79.1513 -54.128 95.2041 -39.72 -24.7775 -22.6686 4.20242 61.5405 0.0174053 3.94072 -0.35538 -13.2605 7.01419 -11.4311 7.66399 -11.5543 -11.4487 -16.1159 
-0.514958 97.1104 -5.51767 138.921 -86.746 139.64 -176.212 2.22 89.6233 -14.9966 -0.238877 0.753102 66.6799 3.93316 -0.470339 29.7168 0.288715 1.76828 173.568 1.81154 91.4767 -14.7617 -6.67233 -0.292769 65.8875 -5.86932 2.5294 30.1376 -1.80992 0.516846 -0.347287 7.18684 -90.1794 12.4994 -0.775309 -0.268793 0.828688 -0.786381 -0.234418 -21.7077 -0.658681 -0.489384 -1.69502 -0.658679 -0.489393 96.4002 -51.5653 -90.7772 29.3217 -6.07169 -9.9998 2.93066 -6.45922 -13.7923 -13.1994 -0.448159 -1.27182 -79.174 -54.6874 95.1857 -39.0656 -24.5537 -22.7491 3.83233 61.8693 0.0175919 3.92681 -0.351364 -13.1014 8.99034 -7.5842 5.82929 -12.9401 -7.4892 -12.9656 
-0.499434 97.0967 -5.48386 134.189 -86.7404 134.924 -176.312 2.33246 89.608 -14.9273 -0.250051 0.805727 66.7021 3.90244 -0.600317 29.6437 0.251499 1.88119 173.521 1.84051 91.4866 -14.5446 -6.46561 -0.220712 65.951 -5.97718 2.62088 30.0226 -1.65655 0.310343 -0.317916 7.15588 -90.1888 12.5612 -0.721487 -0.29326 0.890469 -0.733698 -0.261229 -21.6456 -0.599998 -0.496546 -1.63297 -0.599998 -0.496544 96.4132 -51.578 -90.7561 29.3302 -6.1464 -9.95946 2.90541 -6.45343 -13.8844 -13.1961 -0.479292 -0.98938 -79.2559 -54.8891 95.0736 -38.4685 -24.243 -22.3353 3.3056 61.6875 0.0174882 3.27413 -0.289742 -12.7428 10.6702 -4.26195 4.19976 -13.9245 -4.1145 -10.0073 
-0.535999 97.1186 -5.5394 133.264 -86.5853 133.919 -176.315 2.44493 89.5586 -15.1171 -0.291589 0.797917 66.7122 3.77067 -0.811256 29.5353 0.206218 1.8664 173.541 1.9477 91.4426 -14.8065 -6.56352 -0.265255 65.8448 -5.7215 2.40193 30.2007 -1.89163 0.200043 -0.291099 7.15635 -90.1769 12.5604 -0.662571 -0.27642 0.889649 -0.674097 -0.246999 -21.6463 -0.548859 -0.462775 -1.63362 -0.548865 -0.462779 96.346 -51.9185 -90.8205 28.8778 -6.1835 -10.0681 2.9055 -6.42881 -13.6768 -12.6346 -0.439668 -1.17498 -79.2571 -54.7619 95.0685 -38.5995 -24.315 -22.4696 3.4024 61.8468 0.0175789 3.53938 -0.312335 -12.8633 11.5151 -2.07047 2.84254 -14.1613 -1.95937 -7.06605 
-0.524106 97.1132 -5.57472 130.356 -86.2219 130.939 -176.439 2.32257 89.4423 -15.1351 -0.0167699 0.869556 66.6761 3.78662 -0.810558 29.6525 0.246906 2.03856 173.412 1.76838 91.3366 -14.6865 -6.43949 -0.205706 65.8972 -5.93745 2.26219 30.2109 -1.90517 0.222698 -0.27795 7.16512 -90.1699 12.543 -0.633115 -0.26605 0.872131 -0.644207 -0.237928 -21.6637 -0.523886 -0.444022 -1.65106 -0.523884 -0.444027 96.2847 -51.8493 -90.9212 28.9877 -6.01784 -9.70078 2.71825 -6.83875 -13.8561 -12.3966 -0.431004 -1.17921 -79.2564 -54.5479 95.0636 -38.8049 -24.2361 -22.4355 3.4017 62.3449 0.0178699 4.08276 -0.3438 -12.6967 11.8796 -1.08357 1.43124 -13.4881 -1.01033 -3.9844 
-0.506046 97.1027 -5.6326 128.963 -86.0684 129.429 -176.448 2.19027 89.3996 -14.8575 0.300211 0.792746 66.593 3.9254 -0.638968 29.639 0.251532 1.8427 173.326 1.86316 91.2412 -14.8598 -5.9899 -0.223956 66.0878 -5.90113 2.51639 30.0107 -1.64275 0.511149 -0.23498 7.19213 -90.1668 12.489 -0.546195 -0.270142 0.818149 -0.557552 -0.245847 -21.7174 -0.439763 -0.42181 -1.70478 -0.439756 -0.421813 96.4637 -51.6569 -90.671 28.9944 -6.31007 -9.8841 2.90136 -6.47037 -13.6072 -12.4518 -0.438712 -1.12308 -79.2108 -55.0996 95.1434 -38.6824 -24.4232 -23.0632 3.74323 62.9297 0.0182258 2.82973 -0.259536 -13.0122 12.7975 -0.886657 1.53526 -14.0574 -0.915908 -3.19291 
-0.49077 97.1054 -5.64791 126.577 -85.7948 126.946 -176.458 2.2588 89.3316 -14.8783 0.424101 0.765565 66.539 3.92246 -0.711736 29.4635 0.18618 1.67565 173.225 1.85819 91.1215 -14.9433 -5.85785 -0.192069 66.0986 -5.76779 2.56964 30.0855 -1.74009 0.356604 -0.236074 7.20208 -90.1487 12.4692 -0.539715 -0.234856 0.798364 -0.549526 -0.210887 -21.7373 -0.44418 -0.386203 -1.72463 -0.444182 -0.386219 96.459 -51.7013 -90.6732 28.9244 -6.61994 -9.78235 2.82374 -6.7241 -13.84 -12.5665 -0.48721 -0.700202 -79.2644 -54.8708 95.0605 -38.8884 -24.3701 -22.8581 3.69456 62.5606 0.0179994 3.25725 -0.284135 -12.8031 12.8955 -0.936385 2.01359 -13.9396 -1.04245 -3.64918 
-0.457928 97.1107 -5.64546 124.971 -85.7851 125.359 -176.536 2.32896 89.2971 -14.8951 0.541704 0.810812 66.5787 3.89707 -0.729133 29.4366 0.163097 1.88735 173.197 1.97868 91.0983 -15.0007 -5.95716 -0.134402 66.0424 -5.74488 2.44312 30.2134 -1.9079 0.079002 -0.222821 7.20646 -90.1505 12.4604 -0.514257 -0.241502 0.789569 -0.524406 -0.218644 -21.746 -0.417906 -0.384906 -1.73334 -0.417909 -0.384902 96.4485 -51.6909 -90.6903 28.9326 -6.62108 -9.91745 2.93442 -6.5789 -13.9455 -13.4065 -0.500706 -0.868859 -79.2132 -54.7569 95.131 -38.6763 -24.096 -22.3974 3.26694 62.6402 0.0180476 3.79349 -0.309646 -12.3807 12.9876 -0.945873 2.34678 -13.9198 -1.12294 -3.79397 
-0.431003 97.1258 -5.64353 124.355 -85.7235 124.737 -176.485 2.31221 89.3007 -14.9236 0.528639 0.750204 66.7167 3.99152 -0.837037 29.171 0.0462603 1.95451 173.202 1.8811 91.0876 -14.8358 -5.89056 -0.152079 65.9754 -5.79039 2.41666 30.1833 -1.86855 0.204726 -0.222715 7.21421 -90.1527 12.4449 -0.51508 -0.245784 0.774028 -0.525404 -0.222882 -21.7615 -0.417401 -0.389226 -1.74888 -0.417404 -0.389233 96.3873 -51.9305 -90.7571 28.7738 -6.28846 -10.0503 2.98007 -6.22134 -13.8227 -13.307 -0.40465 -1.69997 -79.1441 -54.6284 95.2271 -38.733 -24.089 -22.1713 3.37623 62.8522 0.0181778 3.60206 -0.322542 -12.7847 13.0315 -0.974514 2.49978 -13.9397 -1.18906 -3.80324 
-0.42351 97.1159 -5.63978 124.15 -85.6016 124.595 -176.454 2.35543 89.3702 -15.084 0.675946 0.760834 66.6943 3.98457 -0.731812 29.3503 0.137345 1.69138 173.222 1.78463 91.1715 -14.755 -5.83426 -0.144843 65.8909 -5.76706 2.23729 30.2681 -1.98101 0.190203 -0.228487 7.22109 -90.1631 12.4311 -0.531515 -0.26482 0.760246 -0.542655 -0.24117 -21.7753 -0.427349 -0.412316 -1.76266 -0.427348 -0.412314 96.3201 -51.9478 -90.857 28.8589 -6.24106 -9.95108 2.94025 -5.94042 -14.0332 -12.8991 -0.379773 -1.81509 -79.0449 -54.4989 95.3666 -39.0284 -24.5115 -22.2588 3.79917 63.5363 0.0186125 2.9436 -0.252989 -12.4199 13.4897 -0.931994 2.64934 -13.8874 -1.18731 -3.88392 
-0.412382 97.1007 -5.61022 122.611 -85.4879 123.043 -176.501 2.32903 89.3554 -14.9262 0.711284 0.792266 66.6426 3.99876 -0.74602 29.3602 0.147726 1.58066 173.186 1.80311 91.1657 -14.7869 -5.51047 -0.144118 66.0376 -5.79474 2.45352 30.1104 -1.77256 0.291595 -0.236189 7.24266 -90.1772 12.3879 -0.553474 -0.290847 0.71701 -0.565737 -0.266216 -21.8185 -0.44047 -0.443749 -1.80589 -0.440478 -0.443749 96.2619 -51.7946 -90.9621 29.1371 -6.07392 -9.98124 2.84967 -6.49125 -13.9007 -13.1509 -0.398643 -1.71111 -78.962 -55.0714 95.4991 -38.3704 -24.3515 -22.3305 3.54185 62.8362 0.0181679 3.20842 -0.286484 -12.7243 15.1503 -0.530225 2.9297 -12.3817 -0.926953 -4.38931 
